<svg width="39" height="39" viewBox="0 0 39 39" fill="none" xmlns="http://www.w3.org/2000/svg">
<g clip-path="url(#clip0_27_9243)">
<path d="M19.5 3.25C10.5219 3.25 3.25 10.5219 3.25 19.5C3.25 28.4781 10.5219 35.75 19.5 35.75C28.4781 35.75 35.75 28.4781 35.75 19.5C35.75 10.5219 28.4781 3.25 19.5 3.25ZM21.125 30.875H17.875V27.625H21.125V30.875ZM24.4806 18.2894L23.0263 19.7844C21.8563 20.9544 21.125 21.9375 21.125 24.375H17.875V23.5625C17.875 21.7669 18.6062 20.1419 19.7763 18.9637L21.7994 16.9163C22.3844 16.3313 22.75 15.5188 22.75 14.625C22.75 12.8294 21.2956 11.375 19.5 11.375C17.7044 11.375 16.25 12.8294 16.25 14.625H13C13 11.0338 15.9087 8.125 19.5 8.125C23.0912 8.125 26 11.0338 26 14.625C26 16.055 25.4231 17.3469 24.4806 18.2894Z" fill="#212121"/>
</g>
<defs>
<clipPath id="clip0_27_9243">
<rect width="39" height="39" fill="white"/>
</clipPath>
</defs>
</svg>
