<svg width="20" height="20" viewBox="0 0 20 20" fill="none" xmlns="http://www.w3.org/2000/svg">
<path d="M15.5859 17.5781H4.49219C3.88114 17.5775 3.29529 17.3345 2.86321 16.9024C2.43113 16.4703 2.18812 15.8845 2.1875 15.2734V9.60938C2.18812 8.99832 2.43113 8.41248 2.86321 7.9804C3.29529 7.54832 3.88114 7.30531 4.49219 7.30469H8.39297C8.69341 7.30469 8.98154 7.18534 9.19399 6.97289C9.40643 6.76045 9.52578 6.47232 9.52578 6.17188C9.5264 5.56082 9.76942 4.97498 10.2015 4.5429C10.6336 4.11082 11.2194 3.86781 11.8305 3.86719H15.5859C16.197 3.86781 16.7828 4.11082 17.2149 4.5429C17.647 4.97498 17.89 5.56082 17.8906 6.17188V15.2734C17.8899 15.8845 17.6469 16.4702 17.2148 16.9023C16.7827 17.3344 16.197 17.5774 15.5859 17.5781ZM4.49219 8.47656C4.19175 8.47656 3.90361 8.59591 3.69117 8.80836C3.47872 9.0208 3.35938 9.30893 3.35938 9.60938V15.2734C3.35938 15.5739 3.47872 15.862 3.69117 16.0745C3.90361 16.2869 4.19175 16.4062 4.49219 16.4062H15.5859C15.8864 16.4062 16.1745 16.2869 16.387 16.0745C16.5994 15.862 16.7188 15.5739 16.7188 15.2734V6.17188C16.7188 5.87143 16.5994 5.5833 16.387 5.37086C16.1745 5.15841 15.8864 5.03906 15.5859 5.03906H11.8305C11.53 5.03906 11.2419 5.15841 11.0294 5.37086C10.817 5.5833 10.6977 5.87143 10.6977 6.17188C10.6969 6.78289 10.4539 7.36868 10.0218 7.80074C9.58977 8.23279 9.00399 8.47584 8.39297 8.47656H4.49219Z" fill="#717171"/>
<path d="M4.72656 8.47656C4.57116 8.47656 4.42213 8.41483 4.31224 8.30494C4.20236 8.19506 4.14062 8.04603 4.14062 7.89062V2.46094C4.14062 2.30554 4.20236 2.1565 4.31224 2.04662C4.42213 1.93673 4.57116 1.875 4.72656 1.875H15.3516C15.507 1.875 15.656 1.93673 15.7659 2.04662C15.8758 2.1565 15.9375 2.30554 15.9375 2.46094V4.45312C15.9375 4.60853 15.8758 4.75756 15.7659 4.86745C15.656 4.97733 15.507 5.03906 15.3516 5.03906C15.1962 5.03906 15.0471 4.97733 14.9372 4.86745C14.8274 4.75756 14.7656 4.60853 14.7656 4.45312V3.04688H5.3125V7.89062C5.3125 8.04603 5.25077 8.19506 5.14088 8.30494C5.031 8.41483 4.88196 8.47656 4.72656 8.47656Z" fill="#717171"/>
</svg>
