<svg width="60" height="60" viewBox="0 0 60 60" fill="none" xmlns="http://www.w3.org/2000/svg">
<rect width="60" height="60" rx="30" transform="matrix(-1 0 0 1 60 0)" fill="#222629"/>
<path fill-rule="evenodd" clip-rule="evenodd" d="M28.8661 23.1984C28.6015 22.9339 28.1727 22.9339 27.9081 23.1984L21.5855 29.5209C21.4584 29.6479 21.3871 29.8203 21.3871 29.9999C21.3871 30.1796 21.4584 30.3519 21.5855 30.479L27.9081 36.8016C28.1727 37.0661 28.6015 37.0661 28.8661 36.8016C29.1306 36.537 29.1306 36.1081 28.8661 35.8435L23.7 30.6773H38.3226C38.6967 30.6773 39 30.374 39 29.9999C39 29.6258 38.6967 29.3225 38.3226 29.3225H23.7L28.8661 24.1564C29.1306 23.8919 29.1306 23.463 28.8661 23.1984Z" fill="white"/>
</svg>
