<svg width="17" height="17" viewBox="0 0 17 17" fill="none" xmlns="http://www.w3.org/2000/svg">
<g clip-path="url(#clip0_27_9283)">
<path d="M15.583 3.54183H14.8747V1.41683C14.8747 1.22897 14.8 1.0488 14.6672 0.915962C14.5344 0.783124 14.3542 0.708496 14.1663 0.708496H2.83301C2.26942 0.708496 1.72892 0.932379 1.33041 1.33089C0.931891 1.72941 0.708008 2.26991 0.708008 2.8335V14.1668C0.708008 14.7304 0.931891 15.2709 1.33041 15.6694C1.72892 16.0679 2.26942 16.2918 2.83301 16.2918H15.583C15.7709 16.2918 15.951 16.2172 16.0839 16.0844C16.2167 15.9515 16.2913 15.7714 16.2913 15.5835V4.25016C16.2913 4.0623 16.2167 3.88213 16.0839 3.7493C15.951 3.61646 15.7709 3.54183 15.583 3.54183ZM2.34426 2.33058C2.62051 2.04016 1.91217 2.12516 13.458 2.12516V3.54183H2.83301C2.69352 3.53986 2.55772 3.49675 2.44264 3.41791C2.32756 3.33906 2.23832 3.22799 2.18612 3.09862C2.13392 2.96925 2.12108 2.82736 2.14922 2.69072C2.17735 2.55409 2.2452 2.4288 2.34426 2.33058ZM2.83301 14.8752C2.64515 14.8752 2.46498 14.8005 2.33214 14.6677C2.1993 14.5349 2.12467 14.3547 2.12467 14.1668V4.83808C2.63467 5.01516 2.29467 4.9585 14.8747 4.9585V7.79183H12.7497C12.1861 7.79183 11.6456 8.01571 11.2471 8.41423C10.8486 8.81274 10.6247 9.35324 10.6247 9.91683C10.6247 10.4804 10.8486 11.0209 11.2471 11.4194C11.6456 11.8179 12.1861 12.0418 12.7497 12.0418H14.8747V14.8752H2.83301ZM14.8747 10.6252H12.7497C12.5618 10.6252 12.3816 10.5505 12.2488 10.4177C12.116 10.2849 12.0413 10.1047 12.0413 9.91683C12.0413 9.72897 12.116 9.5488 12.2488 9.41596C12.3816 9.28312 12.5618 9.2085 12.7497 9.2085H14.8747V10.6252Z" fill="#717171"/>
</g>
<defs>
<clipPath id="clip0_27_9283">
<rect width="17" height="17" fill="white"/>
</clipPath>
</defs>
</svg>
