<svg width="17" height="17" viewBox="0 0 17 17" fill="none" xmlns="http://www.w3.org/2000/svg">
<path d="M8.49952 8.09717C4.9529 8.09717 2.07812 10.9726 2.07812 14.5193V15.1309V16.3138V16.9889H14.9216V16.3138V15.5386V14.5196C14.9216 10.9726 12.0461 8.09717 8.49952 8.09717Z" fill="#717171"/>
<path d="M5.12814 5.6439L5.78653 5.41156C5.96432 5.708 6.19311 5.97575 6.46511 6.20348L6.14707 6.86825L7.57543 7.55108L7.89276 6.88631C8.23382 6.95325 8.57737 6.96423 8.91276 6.91996L9.1543 7.60492L10.3482 7.18311L10.1095 6.50877C10.4155 6.32921 10.6889 6.09511 10.9234 5.81567L11.5874 6.13336L12.2685 4.70961L11.6037 4.39156C11.6728 4.04236 11.6834 3.68925 11.6356 3.34642L12.2936 3.11444L11.8722 1.92054L11.2138 2.15252C11.0371 1.85715 10.8086 1.59046 10.5384 1.36308L10.8564 0.697605L9.4217 0.0112305L9.10366 0.677418C8.74914 0.608355 8.38966 0.598085 8.04222 0.649439L7.81909 0.0172513L6.62449 0.439064L6.85151 1.08188C6.56393 1.25648 6.30326 1.47996 6.08084 1.74488L5.41536 1.42683L4.73005 2.85979L5.39589 3.17783C5.32753 3.52492 5.31761 3.87625 5.36543 4.21767L4.70703 4.44965L5.12814 5.6439ZM8.50016 2.67811C9.08701 2.67811 9.56266 3.15375 9.56266 3.74061C9.56266 4.32746 9.08701 4.80311 8.50016 4.80311C7.9133 4.80311 7.43766 4.32746 7.43766 3.74061C7.43766 3.15375 7.9133 2.67811 8.50016 2.67811Z" fill="#717171"/>
</svg>
