<svg width="18" height="18" viewBox="0 0 18 18" fill="none" xmlns="http://www.w3.org/2000/svg">
<path d="M9 7.875C8.25832 7.875 7.5333 7.65507 6.91661 7.24301C6.29993 6.83096 5.81928 6.24529 5.53545 5.56006C5.25162 4.87484 5.17736 4.12084 5.32206 3.39341C5.46675 2.66598 5.8239 1.9978 6.34835 1.47335C6.8728 0.948904 7.54098 0.591751 8.26841 0.447057C8.99584 0.302362 9.74984 0.376625 10.4351 0.660453C11.1203 0.944282 11.706 1.42493 12.118 2.04161C12.5301 2.6583 12.75 3.38332 12.75 4.125C12.75 5.11956 12.3549 6.07339 11.6517 6.77665C10.9484 7.47991 9.99456 7.875 9 7.875ZM9 1.875C8.55499 1.875 8.11998 2.00696 7.74997 2.25419C7.37996 2.50143 7.09157 2.85283 6.92127 3.26396C6.75098 3.6751 6.70642 4.1275 6.79323 4.56395C6.88005 5.00041 7.09434 5.40132 7.40901 5.71599C7.72368 6.03066 8.12459 6.24495 8.56105 6.33177C8.99751 6.41859 9.44991 6.37403 9.86104 6.20373C10.2722 6.03343 10.6236 5.74505 10.8708 5.37503C11.118 5.00502 11.25 4.57001 11.25 4.125C11.25 3.52826 11.0129 2.95597 10.591 2.53401C10.169 2.11205 9.59674 1.875 9 1.875Z" fill="#717171"/>
<path d="M15.75 17.625H2.25C2.05109 17.625 1.86032 17.546 1.71967 17.4053C1.57902 17.2647 1.5 17.0739 1.5 16.875V14.625C1.5 13.0337 2.13214 11.5076 3.25736 10.3824C4.38258 9.25714 5.9087 8.625 7.5 8.625H10.5C12.0913 8.625 13.6174 9.25714 14.7426 10.3824C15.8679 11.5076 16.5 13.0337 16.5 14.625V16.875C16.5 17.0739 16.421 17.2647 16.2803 17.4053C16.1397 17.546 15.9489 17.625 15.75 17.625ZM3 16.125H15V14.625C15 13.4315 14.5259 12.2869 13.682 11.443C12.8381 10.5991 11.6935 10.125 10.5 10.125H7.5C6.30653 10.125 5.16193 10.5991 4.31802 11.443C3.47411 12.2869 3 13.4315 3 14.625V16.125Z" fill="#717171"/>
</svg>
