<svg width="60" height="60" viewBox="0 0 60 60" fill="none" xmlns="http://www.w3.org/2000/svg">
<rect width="60" height="60" rx="30" fill="#F47108"/>
<path fill-rule="evenodd" clip-rule="evenodd" d="M31.1339 23.1984C31.3985 22.9339 31.8273 22.9339 32.0919 23.1984L38.4145 29.5209C38.5416 29.6479 38.6129 29.8203 38.6129 29.9999C38.6129 30.1796 38.5416 30.3519 38.4145 30.479L32.0919 36.8016C31.8273 37.0661 31.3985 37.0661 31.1339 36.8016C30.8694 36.537 30.8694 36.1081 31.1339 35.8435L36.3 30.6773H21.6774C21.3033 30.6773 21 30.374 21 29.9999C21 29.6258 21.3033 29.3225 21.6774 29.3225H36.3L31.1339 24.1564C30.8694 23.8919 30.8694 23.463 31.1339 23.1984Z" fill="white"/>
</svg>
