<svg width="19" height="17" viewBox="0 0 19 17" fill="none" xmlns="http://www.w3.org/2000/svg">
<path d="M16.5456 5.27689C16.5456 6.1048 16.2204 6.8988 15.6415 7.48421C15.0626 8.06963 14.2775 8.39851 13.4588 8.39851C12.6402 8.39851 11.855 8.06963 11.2762 7.48421C10.6973 6.8988 10.3721 6.1048 10.3721 5.27689C10.3721 4.44899 10.6973 3.65499 11.2762 3.06957C11.855 2.48416 12.6402 2.15527 13.4588 2.15527C14.2775 2.15527 15.0626 2.48416 15.6415 3.06957C16.2204 3.65499 16.5456 4.44899 16.5456 5.27689Z" fill="#BDC3C7"/>
<path d="M13.459 7.77441C12.6706 7.77441 11.9193 7.89925 11.2402 8.21141C9.45916 9.02303 8.16711 10.7087 7.94141 12.769C7.94141 13.4558 8.4556 14.0177 9.13752 14.0177H17.7804C18.4626 14.0177 18.9768 13.4558 18.9768 12.769C18.7509 10.7087 17.4588 9.02303 15.6777 8.21141C14.9986 7.89925 14.2473 7.77441 13.459 7.77441Z" fill="#BDC3C7"/>
<path d="M8.62857 5.27689C8.62857 6.1048 8.30336 6.8988 7.72449 7.48421C7.14561 8.06963 6.36048 8.39851 5.54183 8.39851C4.72317 8.39851 3.93804 8.06963 3.35917 7.48421C2.78029 6.8988 2.45508 6.1048 2.45508 5.27689C2.45508 4.44899 2.78029 3.65499 3.35917 3.06957C3.93804 2.48416 4.72317 2.15527 5.54183 2.15527C6.36048 2.15527 7.14561 2.48416 7.72449 3.06957C8.30336 3.65499 8.62857 4.44899 8.62857 5.27689Z" fill="#7F8C8D"/>
<path d="M5.54198 7.77441C4.75362 7.77441 4.00231 7.89925 3.32322 8.21141C1.54217 9.02303 0.250117 10.7087 0.0244141 12.769C0.0244141 13.4558 0.538605 14.0177 1.22053 14.0177H9.86342C10.5456 14.0177 11.0598 13.4558 11.0598 12.769C10.8339 10.7087 9.54178 9.02303 7.76073 8.21141C7.08165 7.89925 6.33033 7.77441 5.54198 7.77441Z" fill="#7F8C8D"/>
<path d="M6.65523 9.0542C4.3708 10.0834 2.71424 12.2209 2.4248 14.8334C2.4248 15.7042 3.08418 16.4167 3.95866 16.4167H15.042C15.9168 16.4167 16.5762 15.7042 16.5762 14.8334C16.2865 12.2209 14.6295 10.0834 12.3456 9.0542C11.8318 10.0834 10.7535 10.8751 9.50033 10.8751C8.24712 10.8751 7.16863 10.0834 6.65523 9.0542Z" fill="#2C3E50"/>
<path d="M13.4587 4.54183C13.4587 5.59164 13.0416 6.59846 12.2993 7.34079C11.557 8.08313 10.5501 8.50016 9.50033 8.50016C8.45051 8.50016 7.44369 8.08313 6.70136 7.34079C5.95903 6.59846 5.54199 5.59164 5.54199 4.54183C5.54199 3.49201 5.95903 2.4852 6.70136 1.74287C7.44369 1.00053 8.45051 0.583496 9.50033 0.583496C10.5501 0.583496 11.557 1.00053 12.2993 1.74287C13.0416 2.4852 13.4587 3.49201 13.4587 4.54183Z" fill="#212121"/>
<path d="M9.50033 7.7085C8.48937 7.7085 7.52567 7.92145 6.65523 8.30225C4.3708 9.30133 2.71424 11.4665 2.4248 14.0418C2.4248 14.9166 3.08418 15.6252 3.95866 15.6252H15.042C15.9168 15.6252 16.5762 14.9166 16.5762 14.0418C16.2865 11.4665 14.6295 9.30133 12.3456 8.30225C11.4747 7.92145 10.5113 7.7085 9.50033 7.7085Z" fill="#212121"/>
</svg>
