<svg width="17" height="17" viewBox="0 0 17 17" fill="none" xmlns="http://www.w3.org/2000/svg">
<path d="M5.83325 1.33337V3.33337" stroke="#212121" stroke-width="1.5" stroke-miterlimit="10" stroke-linecap="round" stroke-linejoin="round"/>
<path d="M11.1667 1.33337V3.33337" stroke="#212121" stroke-width="1.5" stroke-miterlimit="10" stroke-linecap="round" stroke-linejoin="round"/>
<path d="M14.5 5.66671V9.08671C13.9067 8.61338 13.1533 8.33337 12.3333 8.33337C11.5133 8.33337 10.7467 8.62002 10.1467 9.10669C9.34 9.74002 8.83333 10.7334 8.83333 11.8334C8.83333 12.4867 9.02001 13.1134 9.34001 13.6334C9.58667 14.04 9.90666 14.3934 10.2867 14.6667H5.83333C3.5 14.6667 2.5 13.3334 2.5 11.3334V5.66671C2.5 3.66671 3.5 2.33337 5.83333 2.33337H11.1667C13.5 2.33337 14.5 3.66671 14.5 5.66671Z" stroke="#212121" stroke-width="1.5" stroke-miterlimit="10" stroke-linecap="round" stroke-linejoin="round"/>
<path d="M5.16675 7.33337H9.16675" stroke="#212121" stroke-width="1.5" stroke-miterlimit="10" stroke-linecap="round" stroke-linejoin="round"/>
<path d="M5.16675 10.6666H6.91341" stroke="#212121" stroke-width="1.5" stroke-miterlimit="10" stroke-linecap="round" stroke-linejoin="round"/>
<path d="M15.8333 11.8334C15.8333 12.4867 15.6466 13.1134 15.3266 13.6334C15.1399 13.9534 14.9066 14.2334 14.6333 14.46C14.0199 15.0067 13.2199 15.3334 12.3333 15.3334C11.5666 15.3334 10.8599 15.0867 10.2866 14.6667C9.90658 14.3934 9.58659 14.04 9.33993 13.6334C9.01993 13.1134 8.83325 12.4867 8.83325 11.8334C8.83325 10.7334 9.33992 9.74002 10.1466 9.10669C10.7466 8.62002 11.5133 8.33337 12.3333 8.33337C13.1533 8.33337 13.9066 8.61338 14.4999 9.08671C15.3133 9.72671 15.8333 10.72 15.8333 11.8334Z" stroke="#212121" stroke-width="1.5" stroke-miterlimit="10" stroke-linecap="round" stroke-linejoin="round"/>
<path d="M12.3334 13.5C12.3334 12.58 13.0801 11.8333 14.0001 11.8333C13.0801 11.8333 12.3334 11.0866 12.3334 10.1666C12.3334 11.0866 11.5867 11.8333 10.6667 11.8333C11.5867 11.8333 12.3334 12.58 12.3334 13.5Z" stroke="#212121" stroke-width="1.5" stroke-linecap="round" stroke-linejoin="round"/>
</svg>
