<svg width="642" height="528" viewBox="0 0 642 528" fill="none" xmlns="http://www.w3.org/2000/svg">
<g id="No Results">
<g id="circle">
<path id="Stroke 1" d="M23.354 242.673V248.093" stroke="#D2D8DF" stroke-width="2.921" stroke-linecap="round"/>
<g id="Group 8">
<path id="Stroke 2" d="M11.1797 245.609L15.6086 250.168" stroke="#D2D8DF" stroke-width="2.921" stroke-linecap="round"/>
<path id="Stroke 4" d="M6 257.745H12.2624" stroke="#D2D8DF" stroke-width="2.921" stroke-linecap="round"/>
<path id="Stroke 6" d="M10.6721 270.097L15.101 265.538" stroke="#D2D8DF" stroke-width="2.921" stroke-linecap="round"/>
</g>
<path id="Stroke 9" d="M23.354 271.581V266.161" stroke="#D2D8DF" stroke-width="2.921" stroke-linecap="round"/>
<path id="Stroke 10" d="M32.3873 267.966L28.7739 264.353" stroke="#D2D8DF" stroke-width="2.921" stroke-linecap="round"/>
<path id="Stroke 11" d="M39.6138 258.933H34.1938" stroke="#D2D8DF" stroke-width="2.921" stroke-linecap="round"/>
<path id="Stroke 12" d="M36.0003 246.287L32.387 249.9" stroke="#D2D8DF" stroke-width="2.921" stroke-linecap="round"/>
<path id="Stroke 13" d="M314.227 6V9.61333" stroke="#D2D8DF" stroke-width="2.921" stroke-linecap="round"/>
<path id="Stroke 15" d="M303.387 16.8398H307.001" stroke="#D2D8DF" stroke-width="2.921" stroke-linecap="round"/>
<path id="Stroke 16" d="M314.227 27.6807V24.0674" stroke="#D2D8DF" stroke-width="2.921" stroke-linecap="round"/>
<path id="Stroke 17" d="M323.261 16.8398H319.647" stroke="#D2D8DF" stroke-width="2.921" stroke-linecap="round"/>
<path id="Stroke 18" d="M104.654 157.759V163.179" stroke="#D2D8DF" stroke-width="2.921" stroke-linecap="round"/>
<path id="Stroke 19" d="M88.3938 174.021H93.8138" stroke="#D2D8DF" stroke-width="2.921" stroke-linecap="round"/>
<path id="Stroke 20" d="M104.654 188.473V183.053" stroke="#D2D8DF" stroke-width="2.921" stroke-linecap="round"/>
<path id="Stroke 21" d="M119.107 174.021H113.687" stroke="#D2D8DF" stroke-width="2.921" stroke-linecap="round"/>
<g id="Group 42">
<path id="Stroke 22" d="M493.546 354.757C497.864 354.757 501.365 358.26 501.365 362.579C501.365 366.899 497.864 370.4 493.546 370.4C489.228 370.4 485.727 366.899 485.727 362.579" stroke="#D2D8DF" stroke-width="2.921" stroke-linecap="round"/>
<path id="Fill 26" fill-rule="evenodd" clip-rule="evenodd" d="M529.33 283.799C533.973 282.351 541.09 276.673 542.737 270.564C544.231 275.964 550.493 282.351 556.144 282.834C549.783 285.087 543.702 291.777 542.737 297.033C542.08 291.676 533.669 284.58 529.33 283.799Z" fill="#EBECEE"/>
<path id="Fill 28" fill-rule="evenodd" clip-rule="evenodd" d="M52.7512 352.348C55.0734 351.624 58.6302 348.786 59.4539 345.731C60.2008 348.43 63.3313 351.624 66.1565 351.866C62.977 352.991 59.937 356.337 59.4539 358.965C59.1256 356.286 54.92 352.738 52.7512 352.348Z" fill="#EBECEE"/>
<path id="Fill 30" fill-rule="evenodd" clip-rule="evenodd" d="M95.8448 101.026C95.8448 104.377 93.13 107.091 89.7818 107.091C86.432 107.091 83.7188 104.377 83.7188 101.026C83.7188 97.6769 86.432 94.9614 89.7818 94.9614C93.13 94.9614 95.8448 97.6769 95.8448 101.026Z" fill="#D1D8DF"/>
<path id="Fill 32" fill-rule="evenodd" clip-rule="evenodd" d="M500.71 117.31C500.71 122.908 496.171 127.447 490.576 127.447C484.978 127.447 480.441 122.908 480.441 117.31C480.441 111.712 484.978 107.174 490.576 107.174C496.171 107.174 500.71 111.712 500.71 117.31Z" fill="#EBECEE"/>
<path id="Fill 34" fill-rule="evenodd" clip-rule="evenodd" d="M641.078 89.8463C641.078 94.2878 637.479 97.887 633.041 97.887C628.6 97.887 625.002 94.2878 625.002 89.8463C625.002 85.4049 628.6 81.8057 633.041 81.8057C637.479 81.8057 641.078 85.4049 641.078 89.8463Z" fill="#EBECEE"/>
<path id="Stroke 36" fill-rule="evenodd" clip-rule="evenodd" d="M209.158 465.377C209.158 468.177 206.889 470.446 204.09 470.446C201.292 470.446 199.024 468.177 199.024 465.377C199.024 462.577 201.292 460.308 204.09 460.308C206.889 460.308 209.158 462.577 209.158 465.377Z" stroke="#D2D8DF" stroke-width="2.921" stroke-linecap="round"/>
<path id="Stroke 38" fill-rule="evenodd" clip-rule="evenodd" d="M206.143 62.0641C206.143 65.4148 203.428 68.1288 200.08 68.1288C196.732 68.1288 194.017 65.4148 194.017 62.0641C194.017 58.715 196.732 55.9995 200.08 55.9995C203.428 55.9995 206.143 58.715 206.143 62.0641Z" stroke="#D2D8DF" stroke-width="2.921" stroke-linecap="round"/>
<path id="Stroke 40" fill-rule="evenodd" clip-rule="evenodd" d="M360.799 521.507C356.925 522.981 352.589 521.034 351.115 517.161C349.641 513.285 351.586 508.947 355.461 507.474C359.334 505.999 363.67 507.945 365.144 511.82C366.62 515.695 364.673 520.033 360.799 521.507Z" stroke="#D2D8DF" stroke-width="2.921" stroke-linecap="round"/>
</g>
</g>
<g id="search">
<g id="documents">
<path id="Fill 1" fill-rule="evenodd" clip-rule="evenodd" d="M358.489 378.173H210.334C199.906 378.173 191.37 369.612 191.37 359.15V147.873C191.37 137.41 199.906 128.854 210.334 128.854H358.489C368.921 128.854 377.457 137.41 377.457 147.873V359.15C377.457 369.612 368.921 378.173 358.489 378.173Z" fill="#E0E2EE"/>
<path id="Fill 3" fill-rule="evenodd" clip-rule="evenodd" d="M345.842 387.207H197.687C187.259 387.207 178.723 378.646 178.723 368.183V156.907C178.723 146.444 187.259 137.887 197.687 137.887H345.842C356.274 137.887 364.81 146.444 364.81 156.907V368.183C364.81 378.646 356.274 387.207 345.842 387.207Z" fill="#E8EBF2"/>
<path id="Fill 5" fill-rule="evenodd" clip-rule="evenodd" d="M333.541 394.338H185.08C174.63 394.338 166.077 385.813 166.077 375.393V164.992C166.077 154.572 174.63 146.051 185.08 146.051H333.541C343.995 146.051 352.548 154.572 352.548 164.992V375.393C352.548 385.813 343.995 394.338 333.541 394.338Z" fill="#D8DBEA"/>
<path id="Fill 8" fill-rule="evenodd" clip-rule="evenodd" d="M333.541 394.338H185.08C174.63 394.338 166.077 385.813 166.077 375.393V164.992C166.077 154.572 174.63 146.051 185.08 146.051H333.541C343.995 146.051 352.548 154.572 352.548 164.992V375.393C352.548 385.813 343.995 394.338 333.541 394.338Z" fill="#F1F2F7"/>
<path id="Fill 11" fill-rule="evenodd" clip-rule="evenodd" d="M312.142 210.154H202.485C199.353 210.154 196.79 207.715 196.79 204.736C196.79 201.753 199.353 199.314 202.485 199.314H312.142C315.273 199.314 317.837 201.753 317.837 204.736C317.837 207.715 315.273 210.154 312.142 210.154Z" fill="#E0E2EE"/>
<path id="Fill 13" fill-rule="evenodd" clip-rule="evenodd" d="M312.142 242.673H202.485C199.353 242.673 196.79 240.235 196.79 237.256C196.79 234.272 199.353 231.833 202.485 231.833H312.142C315.273 231.833 317.837 234.272 317.837 237.256C317.837 240.235 315.273 242.673 312.142 242.673Z" fill="#E0E2EE"/>
<path id="Fill 15" fill-rule="evenodd" clip-rule="evenodd" d="M312.142 275.193H202.485C199.353 275.193 196.79 272.754 196.79 269.775C196.79 266.796 199.353 264.353 202.485 264.353H312.142C315.273 264.353 317.837 266.796 317.837 269.775C317.837 272.754 315.273 275.193 312.142 275.193Z" fill="#E0E2EE"/>
<path id="Fill 17" fill-rule="evenodd" clip-rule="evenodd" d="M312.142 307.714H202.485C199.353 307.714 196.79 305.275 196.79 302.296C196.79 299.313 199.353 296.874 202.485 296.874H312.142C315.273 296.874 317.837 299.313 317.837 302.296C317.837 305.275 315.273 307.714 312.142 307.714Z" fill="#E0E2EE"/>
<path id="Fill 19" fill-rule="evenodd" clip-rule="evenodd" d="M259.724 340.234H202.509C199.364 340.234 196.79 337.795 196.79 334.816C196.79 331.832 199.364 329.394 202.509 329.394H259.724C262.869 329.394 265.443 331.832 265.443 334.816C265.443 337.795 262.869 340.234 259.724 340.234Z" fill="#E0E2EE"/>
</g>
<g id="search_2">
<path id="Fill 21" fill-rule="evenodd" clip-rule="evenodd" d="M375.208 298.203C353.281 320.126 319.335 322.6 294.691 305.673C291.541 303.471 288.544 300.998 285.748 298.203C284.309 296.769 282.953 295.289 281.674 293.73C279.118 290.618 276.879 287.299 275.044 283.87C271.812 278.077 269.614 271.931 268.414 265.578C264.543 245.655 270.332 224.209 285.748 208.8C301.201 193.345 322.65 187.594 342.577 191.428C348.927 192.665 355.079 194.862 360.872 198.057C364.306 199.933 367.58 202.171 370.697 204.727C372.251 206.001 373.732 207.361 375.166 208.8C377.966 211.595 380.477 214.588 382.638 217.741C399.572 242.377 397.093 276.321 375.208 298.203Z" fill="white" fill-opacity="0.1"/>
<path id="Fill 23" fill-rule="evenodd" clip-rule="evenodd" d="M369.072 293.886C346.26 316.702 309.291 316.698 286.475 293.886C263.688 271.1 263.688 234.127 286.504 211.314C309.291 188.528 346.26 188.528 369.046 211.314C391.858 234.127 391.858 271.1 369.072 293.886ZM380.779 199.594C351.498 170.312 304.049 170.312 274.767 199.594C245.49 228.871 245.465 276.35 274.742 305.631C301.391 332.272 343.161 334.675 372.54 312.801C375.409 310.661 378.173 308.263 380.809 305.631C383.441 302.995 385.839 300.232 387.974 297.362C409.848 267.979 407.424 226.239 380.779 199.594Z" fill="#E0E2EE"/>
<path id="Fill 25" fill-rule="evenodd" clip-rule="evenodd" d="M496.014 416.007L494.785 417.237C486.652 425.374 473.334 425.374 465.197 417.237L390.103 342.143L420.92 311.326L496.014 386.42C504.151 394.557 504.151 407.87 496.014 416.007Z" fill="url(#paint0_linear_1_3070)"/>
<path id="Fill 27" fill-rule="evenodd" clip-rule="evenodd" d="M389.593 295.066L411.783 317.257L396.03 333.006L373.844 310.816C376.772 308.633 379.587 306.185 382.281 303.5C384.967 300.814 387.414 297.995 389.593 295.066Z" fill="#E0E2EE"/>
<path id="Fill 29" fill-rule="evenodd" clip-rule="evenodd" d="M494.89 385.496L464.269 416.112L458.757 410.596L489.373 379.979L494.89 385.496Z" fill="#EF545F"/>
<path id="Fill 31" fill-rule="evenodd" clip-rule="evenodd" d="M422.624 312.386L391.164 343.846L386.49 339.172L417.949 307.712L422.624 312.386Z" fill="url(#paint1_linear_1_3070)"/>
<path id="Fill 33" fill-rule="evenodd" clip-rule="evenodd" d="M353.97 203.466L276.819 280.613C273.914 275.406 271.938 269.88 270.864 264.169L337.525 197.506C343.233 198.622 348.763 200.594 353.97 203.466Z" fill="white" fill-opacity="0.5"/>
<path id="Fill 35" fill-rule="evenodd" clip-rule="evenodd" d="M379.264 221.802L295.855 300.486C292.868 298.519 290.025 296.306 287.374 293.805C286.009 292.517 284.718 291.197 283.51 289.802L367.935 210.152C369.413 211.296 370.817 212.514 372.178 213.801C374.829 216.302 377.214 218.98 379.264 221.802Z" fill="white" fill-opacity="0.5"/>
</g>
</g>
</g>
<defs>
<linearGradient id="paint0_linear_1_3070" x1="446.11" y1="255.32" x2="334.097" y2="367.333" gradientUnits="userSpaceOnUse">
<stop stop-color="#FF8960"/>
<stop offset="1" stop-color="#FF62A5"/>
</linearGradient>
<linearGradient id="paint1_linear_1_3070" x1="404.557" y1="289.646" x2="368.424" y2="325.779" gradientUnits="userSpaceOnUse">
<stop stop-color="#FF404E"/>
<stop offset="1" stop-color="#FF62A5"/>
</linearGradient>
</defs>
</svg>
