<svg width="20" height="20" viewBox="0 0 20 20" fill="none" xmlns="http://www.w3.org/2000/svg">
<path d="M2.25834 14.1833L3.70834 11.2833C4.10834 10.475 4.10834 9.53332 3.70834 8.72499L2.25834 5.81665C1.01667 3.33332 3.69167 0.708322 6.15 2.00832L7.43334 2.69165C7.61667 2.78332 7.75834 2.93332 7.83334 3.11665L12.575 13.6583C12.7667 14.0917 12.5917 14.6 12.175 14.8167L6.14167 17.9917C3.69167 19.2917 1.01667 16.6667 2.25834 14.1833Z" fill="white"/>
<path d="M13.5917 13L10.4833 6.10001C10.1333 5.325 10.9667 4.54167 11.7167 4.94167L16.525 7.47501C18.5667 8.55001 18.5667 11.4667 16.525 12.5417L14.825 13.4333C14.3667 13.6667 13.8083 13.475 13.5917 13Z" fill="white"/>
</svg>
