<svg width="52" height="31" viewBox="0 0 52 31" fill="none" xmlns="http://www.w3.org/2000/svg">
<rect width="52" height="31" rx="4" fill="#05BC8C"/>
<path d="M18.2583 19.1834L19.7083 16.2834C20.1083 15.475 20.1083 14.5334 19.7083 13.725L18.2583 10.8167C17.0167 8.33335 19.6917 5.70835 22.15 7.00835L23.4333 7.69169C23.6167 7.78335 23.7583 7.93335 23.8333 8.11669L28.575 18.6584C28.7667 19.0917 28.5917 19.6 28.175 19.8167L22.1417 22.9917C19.6917 24.2917 17.0167 21.6667 18.2583 19.1834Z" fill="white"/>
<path d="M29.5917 17.9999L26.4833 11.0999C26.1333 10.3249 26.9667 9.54155 27.7167 9.94155L32.525 12.4749C34.5667 13.5499 34.5667 16.4665 32.525 17.5416L30.825 18.4332C30.3667 18.6666 29.8083 18.4749 29.5917 17.9999Z" fill="white"/>
</svg>
