<svg width="16" height="16" viewBox="0 0 16 16" fill="none" xmlns="http://www.w3.org/2000/svg">
<g clip-path="url(#clip0_1_4403)">
<path d="M5.72667 9.00665L10.28 11.66M10.2733 4.33998L5.72667 6.99331M12 10.6666C13.1047 10.6666 14 11.562 14 12.6666C14 13.7713 13.1047 14.6666 12 14.6666C10.8953 14.6666 10 13.7713 10 12.6666C10 11.562 10.8953 10.6666 12 10.6666ZM4 5.99998C5.10467 5.99998 6 6.89531 6 7.99998C6 9.10465 5.10467 9.99998 4 9.99998C2.89533 9.99998 2 9.10465 2 7.99998C2 6.89531 2.89533 5.99998 4 5.99998ZM12 1.33331C13.1047 1.33331 14 2.22865 14 3.33331C14 4.43798 13.1047 5.33331 12 5.33331C10.8953 5.33331 10 4.43798 10 3.33331C10 2.22865 10.8953 1.33331 12 1.33331Z" stroke="#212121" stroke-width="2" stroke-linecap="round" stroke-linejoin="round"/>
</g>
<defs>
<clipPath id="clip0_1_4403">
<rect width="16" height="16" fill="white"/>
</clipPath>
</defs>
</svg>
