<svg width="22" height="21" viewBox="0 0 22 21" fill="none" xmlns="http://www.w3.org/2000/svg">
<mask id="path-1-inside-1_1_4184" fill="white">
<path fill-rule="evenodd" clip-rule="evenodd" d="M19.5508 13.8442C20.0127 12.6879 20.2667 11.4265 20.2667 10.106C20.2667 4.5246 15.7298 0 10.1333 0C4.53685 0 0 4.5246 0 10.106C0 15.6873 4.53685 20.2119 10.1333 20.2119C11.6015 20.2119 12.9968 19.9005 14.2563 19.3404H20.9982C21.7685 19.3404 22.2496 18.506 21.8636 17.8394L19.5508 13.8442Z"/>
</mask>
<path fill-rule="evenodd" clip-rule="evenodd" d="M19.5508 13.8442C20.0127 12.6879 20.2667 11.4265 20.2667 10.106C20.2667 4.5246 15.7298 0 10.1333 0C4.53685 0 0 4.5246 0 10.106C0 15.6873 4.53685 20.2119 10.1333 20.2119C11.6015 20.2119 12.9968 19.9005 14.2563 19.3404H20.9982C21.7685 19.3404 22.2496 18.506 21.8636 17.8394L19.5508 13.8442Z" fill="#F3F4F6"/>
<path d="M19.5508 13.8442L17.6935 13.1023L17.3329 14.005L17.8199 14.8463L19.5508 13.8442ZM14.2563 19.3404V17.3404H13.8316L13.4436 17.513L14.2563 19.3404ZM21.8636 17.8394L20.1327 18.8414H20.1327L21.8636 17.8394ZM18.2667 10.106C18.2667 11.1681 18.0627 12.178 17.6935 13.1023L21.4081 14.5862C21.9627 13.1979 22.2667 11.6849 22.2667 10.106H18.2667ZM10.1333 2C14.6303 2 18.2667 5.63426 18.2667 10.106H22.2667C22.2667 3.41493 16.8293 -2 10.1333 -2V2ZM2 10.106C2 5.63426 5.63631 2 10.1333 2V-2C3.43738 -2 -2 3.41493 -2 10.106H2ZM10.1333 18.2119C5.63631 18.2119 2 14.5777 2 10.106H-2C-2 16.797 3.43738 22.2119 10.1333 22.2119V18.2119ZM13.4436 17.513C12.435 17.9615 11.3162 18.2119 10.1333 18.2119V22.2119C11.8868 22.2119 13.5585 21.8396 15.069 21.1678L13.4436 17.513ZM20.9982 17.3404H14.2563V21.3404H20.9982V17.3404ZM20.1327 18.8414C19.7468 18.1747 20.2279 17.3404 20.9982 17.3404V21.3404C23.3091 21.3404 24.7523 18.8373 23.5945 16.8373L20.1327 18.8414ZM17.8199 14.8463L20.1327 18.8414L23.5945 16.8373L21.2817 12.8422L17.8199 14.8463Z" fill="#F47108" mask="url(#path-1-inside-1_1_4184)"/>
</svg>
